# xmcd
#
# Track frame offsets:
#	150
#	13970
#	32495
#	48942
#	63446
#	74913
#	97123
#	113314
#	131666
#	144812
#	157182
#	175589
#	193257
#	217164
#	239529
#	258155
#	274879
#	293063
#	310576
#
# Disc length: 4356 seconds
#
# Revision: 1
# Processed by: cddbd v1.4PL0 Copyright (c) Steve Scherf et al.
# Submitted via: audiograbber 1.80
#
DISCID=1e110213
DTITLE=Travis Tritt - Greatest Hits Of ...
DYEAR=1900
DGENRE=
TTITLE0=T-r-o-u-b-l-e
TTITLE1=I'm gonna be somebody
TTITLE2=Can i trust you with my heart
TTITLE3=Country club
TTITLE4=Here's a quarter (call someone who...)
TTITLE5=Lord have mercy on the working man
TTITLE6=Ten feet tall and bulletproof
TTITLE7=It's a great day to be alive
TTITLE8=Bible belt
TTITLE9=The whiskey ain't working
TTITLE10=Between an old memory and me
TTITLE11=Only you (and you alone)
TTITLE12=Drift off to dream
TTITLE13=Tell me i was dreaming
TTITLE14=Best of intentions
TTITLE15=Love of a woman
TTITLE16=Help me hold on
TTITLE17=Anymore
TTITLE18=More than you ever know
EXTD=
EXTT0=
EXTT1=
EXTT2=
EXTT3=
EXTT4=
EXTT5=
EXTT6=
EXTT7=
EXTT8=
EXTT9=
EXTT10=
EXTT11=
EXTT12=
EXTT13=
EXTT14=
EXTT15=
EXTT16=
EXTT17=
EXTT18=
PLAYORDER=
